<svg xmlns="http://www.w3.org/2000/svg" version="1.1" xmlns:xlink="http://www.w3.org/1999/xlink" xmlns:svgjs="http://svgjs.dev/svgjs" width="1500" height="367" viewBox="0 0 1500 367"><g transform="matrix(1,0,0,1,-0.9090909090909918,0.41938440309007774)"><svg viewBox="0 0 396 97" data-background-color="#ffffff" preserveAspectRatio="xMidYMid meet" height="367" width="1500" xmlns="http://www.w3.org/2000/svg" xmlns:xlink="http://www.w3.org/1999/xlink"><g id="tight-bounds" transform="matrix(1,0,0,1,0.2400000000000091,-0.11084546893661695)"><svg viewBox="0 0 395.52 97.22169093787323" height="97.22169093787323" width="395.52"><g><svg viewBox="0 0 449.8636502109923 110.5797551704" height="97.22169093787323" width="395.52"><g><svg viewBox="0 0 449.8636502109923 110.5797551704" height="110.5797551704" width="449.8636502109923"><g id="textblocktransform"><svg viewBox="0 0 449.8636502109923 110.5797551704" height="110.5797551704" width="449.8636502109923" id="textblock"><g><svg viewBox="0 0 449.8636502109923 57.1154" height="57.1154" width="449.8636502109923"><g><svg><g></g><g></g></svg></g><g><svg><g><svg></svg></g><g></g></svg></g><g id="text-0"><svg viewBox="0 0 449.8636502109923 57.1154" height="57.1154" width="449.8636502109923"><g transform="matrix(1,0,0,1,0,0)"><svg width="377.88668965517246" viewBox="4.25 -34.7 234.38172355737495 35.300000000000004" height="57.1154" data-palette-color="#ff4a00"><g class="wordmark-text-0" data-fill-palette-color="primary"><path d="M4.25-34.5L8.6-34.5 8.6-7Q8.6-5.3 9.43-4.5 10.25-3.7 11.95-3.7L11.95-3.7 24.4-3.7 24.6-0.3Q21.35-0.05 17.98 0 14.6 0.05 11.25 0.05L11.25 0.05Q7.45 0.05 5.85-1.8 4.25-3.65 4.25-6.45L4.25-6.45 4.25-34.5ZM39.6-24.95L39.6-24.95Q45.1-24.95 47.57-22.95 50.05-20.95 50.05-17L50.05-17Q50.1-13.75 48.7-11.93 47.3-10.1 44.25-10.1L44.25-10.1 30.05-10.1 30.05-13.4 43.15-13.4Q44.8-13.4 45.3-14.53 45.8-15.65 45.8-17L45.8-17Q45.75-19.35 44.4-20.35 43.05-21.35 39.8-21.35L39.8-21.35Q37.15-21.35 35.62-20.58 34.1-19.8 33.47-17.88 32.85-15.95 32.85-12.5L32.85-12.5Q32.85-8.6 33.62-6.55 34.4-4.5 36.1-3.75 37.8-3 40.6-3L40.6-3Q42.55-3 44.87-3.18 47.2-3.35 49.05-3.6L49.05-3.6 49.5-0.75Q48.35-0.3 46.67 0 45 0.3 43.22 0.45 41.45 0.6 40.05 0.6L40.05 0.6Q35.85 0.6 33.3-0.68 30.75-1.95 29.57-4.78 28.4-7.6 28.4-12.25L28.4-12.25Q28.4-17.05 29.57-19.83 30.75-22.6 33.22-23.78 35.7-24.95 39.6-24.95ZM67.95-24.95L67.95-24.95Q70.65-24.95 72.52-24.23 74.4-23.5 75.34-21.8 76.3-20.1 76.3-17.15L76.3-17.15 76.3 0 72.95 0 72.3-5.3 72-5.85 72-17.15Q72-19.4 70.97-20.38 69.95-21.35 67.05-21.35L67.05-21.35Q65.15-21.35 62.27-21.15 59.4-20.95 56.59-20.7L56.59-20.7 56.2-23.85Q57.9-24.15 59.92-24.4 61.95-24.65 64.05-24.8 66.15-24.95 67.95-24.95ZM61.84-15L74.3-15 74.25-11.8 62.59-11.75Q60.84-11.7 60.15-10.83 59.45-9.95 59.45-8.4L59.45-8.4 59.45-6.85Q59.45-4.95 60.34-4.08 61.25-3.2 63.25-3.2L63.25-3.2Q64.65-3.2 66.42-3.73 68.2-4.25 70-5.35 71.8-6.45 73.3-8.15L73.3-8.15 73.3-5Q72.75-4.3 71.72-3.38 70.7-2.45 69.27-1.58 67.84-0.7 66.12-0.13 64.4 0.45 62.4 0.45L62.4 0.45Q60.25 0.45 58.59-0.33 56.95-1.1 56.02-2.63 55.09-4.15 55.09-6.35L55.09-6.35 55.09-9Q55.09-11.85 56.87-13.43 58.65-15 61.84-15L61.84-15ZM83.89-24.35L87.19-24.35 87.74-19.7 88.14-18.95 88.14 0 83.89 0 83.89-24.35ZM98.04-24.95L99.14-24.95 98.64-20.95 97.24-20.95Q95.09-20.95 92.94-20.08 90.79-19.2 87.69-17.6L87.69-17.6 87.34-20.25Q90.04-22.45 92.77-23.7 95.49-24.95 98.04-24.95L98.04-24.95ZM118.74-24.95L118.74-24.95Q125.34-24.95 125.34-18.25L125.34-18.25 125.34 0 121.09 0 121.09-17.05Q121.09-19.5 120.29-20.43 119.49-21.35 117.59-21.35L117.59-21.35Q115.34-21.35 113.09-20.25 110.84-19.15 107.74-17.25L107.74-17.25 107.54-20.3Q110.39-22.5 113.19-23.73 115.99-24.95 118.74-24.95ZM103.94-24.35L107.54-24.35 107.89-19.7 108.19-18.95 108.19 0 103.94 0 103.94-24.35ZM170.29-34.5L174.94-34.5 167.94-1.3Q167.79-0.75 167.34-0.38 166.89 0 166.19 0L166.19 0 161.19 0Q160.54 0 160.06-0.38 159.59-0.75 159.49-1.35L159.49-1.35 154.09-27.3Q153.89-28.3 153.69-29.28 153.49-30.25 153.29-31.2L153.29-31.2 152.24-31.2Q152.04-30.25 151.86-29.25 151.69-28.25 151.49-27.3L151.49-27.3 146.14-1.35Q145.99-0.75 145.51-0.38 145.04 0 144.39 0L144.39 0 139.34 0Q138.69 0 138.21-0.38 137.74-0.75 137.64-1.3L137.64-1.3 130.64-34.5 135.29-34.5 140.69-7.6Q140.89-6.65 141.04-5.58 141.19-4.5 141.39-3.35L141.39-3.35 142.54-3.35Q142.74-4.5 142.94-5.55 143.14-6.6 143.34-7.6L143.34-7.6 148.69-33.05Q148.79-33.7 149.26-34.1 149.74-34.5 150.39-34.5L150.39-34.5 155.19-34.5Q155.84-34.5 156.29-34.1 156.74-33.7 156.89-33.05L156.89-33.05 162.24-7.6Q162.49-6.5 162.66-5.45 162.84-4.4 162.94-3.35L162.94-3.35 164.19-3.35Q164.34-4.4 164.49-5.48 164.64-6.55 164.84-7.55L164.84-7.55 170.29-34.5ZM180.59-24.35L184.79-24.35 184.79 0 180.59 0 180.59-24.35ZM181.69-34.7L183.69-34.7Q184.99-34.7 184.99-33.4L184.99-33.4 184.99-30.55Q184.99-29.25 183.69-29.25L183.69-29.25 181.69-29.25Q180.39-29.25 180.39-30.55L180.39-30.55 180.39-33.4Q180.39-34.7 181.69-34.7L181.69-34.7ZM200.88-24.95L200.88-24.95Q202.48-24.95 204.28-24.85 206.08-24.75 207.86-24.6 209.63-24.45 211.13-24.2L211.13-24.2 210.78-21.1Q208.48-21.2 206.16-21.28 203.83-21.35 201.53-21.35L201.53-21.35Q199.28-21.4 197.98-21.25 196.68-21.1 196.11-20.45 195.53-19.8 195.53-18.25L195.53-18.25Q195.53-16.35 196.43-15.75 197.33-15.15 199.08-14.75L199.08-14.75 206.18-13.15Q209.08-12.45 210.46-11 211.83-9.55 211.83-6.45L211.83-6.45Q211.83-3.45 210.71-1.95 209.58-0.45 207.28 0.05 204.98 0.55 201.43 0.55L201.43 0.55Q200.13 0.55 197.56 0.45 194.98 0.35 191.88-0.15L191.88-0.15 192.18-3.25Q193.38-3.2 194.73-3.13 196.08-3.05 197.56-3.05 199.03-3.05 200.58-3.05L200.58-3.05Q203.33-3.05 204.88-3.3 206.43-3.55 207.08-4.28 207.73-5 207.73-6.45L207.73-6.45Q207.73-8.25 206.68-8.85 205.63-9.45 203.88-9.85L203.88-9.85 196.88-11.45Q194.88-11.95 193.68-12.78 192.48-13.6 191.93-14.93 191.38-16.25 191.38-18.25L191.38-18.25Q191.38-21.1 192.38-22.55 193.38-24 195.48-24.5 197.58-25 200.88-24.95ZM228.18-24.95L228.18-24.95Q233.68-24.95 236.16-22.95 238.63-20.95 238.63-17L238.63-17Q238.68-13.75 237.28-11.93 235.88-10.1 232.83-10.1L232.83-10.1 218.63-10.1 218.63-13.4 231.73-13.4Q233.38-13.4 233.88-14.53 234.38-15.65 234.38-17L234.38-17Q234.33-19.35 232.98-20.35 231.63-21.35 228.38-21.35L228.38-21.35Q225.73-21.35 224.21-20.58 222.68-19.8 222.06-17.88 221.43-15.95 221.43-12.5L221.43-12.5Q221.43-8.6 222.21-6.55 222.98-4.5 224.68-3.75 226.38-3 229.18-3L229.18-3Q231.13-3 233.46-3.18 235.78-3.35 237.63-3.6L237.63-3.6 238.08-0.75Q236.93-0.3 235.26 0 233.58 0.3 231.81 0.45 230.03 0.6 228.63 0.6L228.63 0.6Q224.43 0.6 221.88-0.68 219.33-1.95 218.16-4.78 216.98-7.6 216.98-12.25L216.98-12.25Q216.98-17.05 218.16-19.83 219.33-22.6 221.81-23.78 224.28-24.95 228.18-24.95Z" fill="#ff4a00" data-fill-palette-color="primary"></path></g></svg></g><g><svg xmlns="http://www.w3.org/2000/svg" xmlns:xlink="http://www.w3.org/1999/xlink" version="1.1" x="391.37128965517246" y="3.552713678800501e-15" viewBox="11.017823632605118 11.459999999999999 37.963698158539415 37.07000000000001" style="enable-background:new 0 0 60 60;" xml:space="preserve" height="57.115399999999994" width="58.49236055581984" class="icon-cg-0" data-fill-palette-color="accent" id="cg-0"><path d="M48.85 34.1L35.82 11.92c-0.17-0.29-0.47-0.46-0.81-0.46s-0.64 0.18-0.81 0.46L30 19.08l-4.21-7.15c-0.17-0.29-0.47-0.46-0.81-0.46s-0.64 0.18-0.81 0.46L11.15 34.1c-0.22 0.37-0.16 0.83 0.14 1.13l13.03 13.03c0.18 0.18 0.42 0.27 0.66 0.27s0.48-0.09 0.66-0.27L30 43.91l4.35 4.35c0.18 0.18 0.42 0.27 0.66 0.27s0.48-0.09 0.66-0.27l13.03-13.03C49.01 34.93 49.07 34.46 48.85 34.1zM24.99 46.28L13.13 34.42l11.86-20.18 3.93 6.68L21.17 34.1c-0.22 0.37-0.16 0.83 0.14 1.13l7.36 7.36L24.99 46.28zM30 22.77l6.85 11.65L30 41.27l-6.85-6.85L30 22.77zM35.01 46.28l-3.69-3.69 7.36-7.36c0.3-0.3 0.36-0.77 0.14-1.13l-7.74-13.17 3.93-6.68 11.86 20.18L35.01 46.28z" fill="#000000" data-fill-palette-color="accent"></path></svg></g></svg></g></svg></g><g transform="matrix(1,0,0,1,0,70.5989751704)"><svg viewBox="0 0 449.8636502109923 39.980779999999996" height="39.980779999999996" width="449.8636502109923"><g transform="matrix(1,0,0,1,0,0)"><svg width="449.8636502109923" viewBox="1.23 -33.48 482.14 42.86" height="39.980779999999996" data-palette-color="#000000"><path d="M5.43 0L1.23 0 11.23-31.95 17.78-31.95 27.8 0 23.6 0 14.83-29.15 14.2-29.15 5.43 0ZM21.78-9.43L7.23-9.43 7.23-12.88 21.78-12.88 21.78-9.43ZM40.24-31.95L40.24 0 36.09 0 36.09-31.95 40.24-31.95ZM79.77 0.53L79.77 0.53Q77.52 0.53 75.87-0.23 74.22-0.98 73.2-2.38 72.17-3.78 71.82-5.63L71.82-5.63 70.5-5.63 71.67-9.43Q71.77-7.23 72.66-5.76 73.55-4.3 75.07-3.58 76.6-2.85 78.52-2.85L78.52-2.85Q81.6-2.85 83.24-4.65 84.87-6.45 84.87-9.93L84.87-9.93 84.87-14.6Q84.87-18.05 83.25-19.85 81.62-21.65 78.52-21.65L78.52-21.65Q76.67-21.65 75.25-20.93 73.82-20.2 72.89-18.95 71.95-17.7 71.6-16.1L71.6-16.1 70.6-18.93 71.77-18.93Q72.17-20.6 73.14-21.96 74.1-23.33 75.79-24.14 77.47-24.95 79.95-24.95L79.95-24.95Q84.35-24.95 86.65-22.21 88.95-19.48 88.95-14.28L88.95-14.28 88.95-10.23Q88.95-4.98 86.64-2.23 84.32 0.53 79.77 0.53ZM71.77 8.6L67.75 8.6 67.75-24.4 71.8-24.4 71.62-18.53 71.67-17.28 71.67-7 71.65-6.18 71.77 0.68 71.77 8.6ZM107.54 0.63L107.54 0.63Q102.29 0.63 99.58-2.21 96.87-5.05 96.87-10.38L96.87-10.38 96.87-14.1Q96.87-19.4 99.59-22.23 102.32-25.05 107.54-25.05L107.54-25.05Q112.79-25.05 115.5-22.23 118.22-19.4 118.22-14.1L118.22-14.1 118.22-10.38Q118.22-5.05 115.5-2.21 112.79 0.63 107.54 0.63ZM107.54-2.68L107.54-2.68Q110.79-2.68 112.48-4.6 114.17-6.53 114.17-10.15L114.17-10.15 114.17-14.33Q114.17-17.93 112.48-19.84 110.79-21.75 107.54-21.75L107.54-21.75Q104.32-21.75 102.62-19.84 100.92-17.93 100.92-14.33L100.92-14.33 100.92-10.15Q100.92-6.53 102.62-4.6 104.32-2.68 107.54-2.68ZM136.71 0L130.48 0 124.48-24.4 128.66-24.4 133.46-2.95 133.93-2.95 138.93-23.75 144.66-23.75 149.66-2.95 150.11-2.95 154.96-24.4 159.11-24.4 153.11 0 146.91 0 142.78-17.35 141.98-20.83 141.61-20.83 140.83-17.35 136.71 0ZM176.6 0.55L176.6 0.55Q171.02 0.55 168.2-2.18 165.37-4.9 165.37-9.98L165.37-9.98 165.37-14.33Q165.37-19.48 168-22.26 170.62-25.05 175.67-25.05L175.67-25.05Q179.07-25.05 181.35-23.79 183.62-22.53 184.77-20.2 185.92-17.88 185.92-14.65L185.92-14.65 185.92-13.75Q185.92-12.95 185.86-12.15 185.8-11.35 185.7-10.58L185.7-10.58 181.97-10.58Q182.02-11.78 182.04-12.85 182.05-13.93 182.05-14.83L182.05-14.83Q182.05-17.05 181.34-18.59 180.62-20.13 179.21-20.94 177.8-21.75 175.67-21.75L175.67-21.75Q172.52-21.75 170.95-19.93 169.37-18.1 169.37-14.7L169.37-14.7 169.37-12.38 169.4-11.88 169.4-9.55Q169.4-8.03 169.85-6.8 170.3-5.58 171.26-4.69 172.22-3.8 173.71-3.34 175.2-2.88 177.25-2.88L177.25-2.88Q179.62-2.88 181.67-3.5 183.72-4.13 185.52-5.2L185.52-5.2 185.15-1.7Q183.52-0.68 181.37-0.06 179.22 0.55 176.6 0.55ZM184.85-10.58L167.5-10.58 167.5-13.63 184.85-13.63 184.85-10.58ZM198.42-14.93L198.42-14.93 197.49-18.05 198.49-18.1Q199.29-21.2 201.24-22.99 203.19-24.78 206.42-24.78L206.42-24.78Q207.22-24.78 207.85-24.65 208.49-24.53 208.99-24.35L208.99-24.35 209.24-20.43Q208.62-20.63 207.85-20.75 207.09-20.88 206.17-20.88L206.17-20.88Q203.42-20.88 201.38-19.35 199.34-17.82 198.42-14.93ZM198.62 0L194.57 0 194.57-24.4 198.52-24.4 198.32-17.2 198.62-16.9 198.62 0ZM226.06 0.55L226.06 0.55Q220.48 0.55 217.66-2.18 214.83-4.9 214.83-9.98L214.83-9.98 214.83-14.33Q214.83-19.48 217.46-22.26 220.08-25.05 225.13-25.05L225.13-25.05Q228.53-25.05 230.81-23.79 233.08-22.53 234.23-20.2 235.38-17.88 235.38-14.65L235.38-14.65 235.38-13.75Q235.38-12.95 235.32-12.15 235.26-11.35 235.16-10.58L235.16-10.58 231.43-10.58Q231.48-11.78 231.49-12.85 231.51-13.93 231.51-14.83L231.51-14.83Q231.51-17.05 230.79-18.59 230.08-20.13 228.67-20.94 227.26-21.75 225.13-21.75L225.13-21.75Q221.98-21.75 220.41-19.93 218.83-18.1 218.83-14.7L218.83-14.7 218.83-12.38 218.86-11.88 218.86-9.55Q218.86-8.03 219.31-6.8 219.76-5.58 220.72-4.69 221.68-3.8 223.17-3.34 224.66-2.88 226.71-2.88L226.71-2.88Q229.08-2.88 231.13-3.5 233.18-4.13 234.98-5.2L234.98-5.2 234.61-1.7Q232.98-0.68 230.83-0.06 228.68 0.55 226.06 0.55ZM234.31-10.58L216.96-10.58 216.96-13.63 234.31-13.63 234.31-10.58ZM252.1 0.53L252.1 0.53Q247.7 0.53 245.4-2.2 243.1-4.93 243.1-10.15L243.1-10.15 243.1-14.18Q243.1-19.43 245.42-22.19 247.75-24.95 252.27-24.95L252.27-24.95Q254.52-24.95 256.17-24.19 257.82-23.43 258.85-22.05 259.87-20.68 260.22-18.8L260.22-18.8 261.55-18.8 260.35-15.08Q260.27-17.23 259.39-18.69 258.5-20.15 256.99-20.9 255.47-21.65 253.52-21.65L253.52-21.65Q250.42-21.65 248.79-19.85 247.15-18.05 247.15-14.55L247.15-14.55 247.15-9.9Q247.15-6.45 248.79-4.65 250.42-2.85 253.52-2.85L253.52-2.85Q255.37-2.85 256.8-3.56 258.22-4.28 259.16-5.54 260.1-6.8 260.45-8.4L260.45-8.4 261.45-5.5 260.25-5.5Q259.9-3.85 258.91-2.48 257.92-1.1 256.26-0.29 254.6 0.53 252.1 0.53ZM264.3 0L260.25 0 260.42-5.9 260.35-7.2 260.35-17.4 260.37-18.25 260.27-25.18 260.27-33.13 264.3-33.13 264.3 0ZM300.16 0.5L300.16 0.5Q297.33 0.5 295.61-0.35 293.88-1.2 293.11-2.93 292.33-4.65 292.33-7.23L292.33-7.23 292.33-22.63 296.33-22.63 296.33-7.7Q296.33-5.3 297.43-4.16 298.53-3.03 301.13-3.03L301.13-3.03Q302.61-3.03 303.97-3.35 305.33-3.68 306.53-4.28L306.53-4.28 306.16-0.8Q304.98-0.2 303.41 0.15 301.83 0.5 300.16 0.5ZM305.91-20.8L288.33-20.8 288.33-24.05 306.28-24.05 305.91-20.8ZM296.23-23.65L292.36-23.65 292.33-30.5 296.41-31.03 296.23-23.65ZM313.72-24.4L317.75-24.4 317.75-9.22Q317.75-7.3 318.29-5.86 318.82-4.42 320.05-3.64 321.27-2.85 323.35-2.85L323.35-2.85Q325.3-2.85 326.7-3.56 328.1-4.28 328.99-5.53 329.87-6.78 330.2-8.35L330.2-8.35 330.92-5.48 330.05-5.48Q329.67-3.83 328.67-2.46 327.67-1.1 325.99-0.29 324.3 0.53 321.82 0.53L321.82 0.53Q318.95 0.53 317.16-0.56 315.37-1.65 314.55-3.74 313.72-5.83 313.72-8.78L313.72-8.78 313.72-24.4ZM330.02-24.4L334.07-24.4 334.07 0 330.02 0 330.2-5.85 330.02-6.1 330.02-24.4ZM352.84 0.5L352.84 0.5Q350.02 0.5 348.29-0.35 346.57-1.2 345.79-2.93 345.02-4.65 345.02-7.23L345.02-7.23 345.02-22.63 349.02-22.63 349.02-7.7Q349.02-5.3 350.12-4.16 351.22-3.03 353.82-3.03L353.82-3.03Q355.29-3.03 356.65-3.35 358.02-3.68 359.22-4.28L359.22-4.28 358.84-0.8Q357.67-0.2 356.09 0.15 354.52 0.5 352.84 0.5ZM358.59-20.8L341.02-20.8 341.02-24.05 358.97-24.05 358.59-20.8ZM348.92-23.65L345.04-23.65 345.02-30.5 349.09-31.03 348.92-23.65ZM376.03 0.63L376.03 0.63Q370.78 0.63 368.07-2.21 365.36-5.05 365.36-10.38L365.36-10.38 365.36-14.1Q365.36-19.4 368.08-22.23 370.81-25.05 376.03-25.05L376.03-25.05Q381.28-25.05 383.99-22.23 386.71-19.4 386.71-14.1L386.71-14.1 386.71-10.38Q386.71-5.05 383.99-2.21 381.28 0.63 376.03 0.63ZM376.03-2.68L376.03-2.68Q379.28-2.68 380.97-4.6 382.66-6.53 382.66-10.15L382.66-10.15 382.66-14.33Q382.66-17.93 380.97-19.84 379.28-21.75 376.03-21.75L376.03-21.75Q372.81-21.75 371.11-19.84 369.41-17.93 369.41-14.33L369.41-14.33 369.41-10.15Q369.41-6.53 371.11-4.6 372.81-2.68 376.03-2.68ZM399.42-14.93L399.42-14.93 398.5-18.05 399.5-18.1Q400.3-21.2 402.25-22.99 404.2-24.78 407.42-24.78L407.42-24.78Q408.22-24.78 408.86-24.65 409.5-24.53 410-24.35L410-24.35 410.25-20.43Q409.62-20.63 408.86-20.75 408.1-20.88 407.17-20.88L407.17-20.88Q404.42-20.88 402.39-19.35 400.35-17.82 399.42-14.93ZM399.62 0L395.57 0 395.57-24.4 399.52-24.4 399.32-17.2 399.62-16.9 399.62 0ZM421.59 0L417.54 0 417.54-24.4 421.59-24.4 421.59 0ZM419.56-28.4L419.56-28.4Q418.31-28.4 417.7-29.06 417.09-29.73 417.09-30.88L417.09-30.88 417.09-31Q417.09-32.18 417.7-32.83 418.31-33.48 419.56-33.48L419.56-33.48Q420.81-33.48 421.44-32.83 422.06-32.18 422.06-31L422.06-31 422.06-30.88Q422.06-29.7 421.44-29.05 420.81-28.4 419.56-28.4ZM451.91 0L447.86 0 447.86-15.18Q447.86-17.15 447.32-18.57 446.78-20 445.57-20.79 444.36-21.58 442.26-21.58L442.26-21.58Q440.33-21.58 438.92-20.85 437.51-20.13 436.63-18.89 435.76-17.65 435.41-16.07L435.41-16.07 434.68-18.95 435.56-18.95Q435.96-20.6 436.96-21.96 437.96-23.33 439.64-24.14 441.33-24.95 443.78-24.95L443.78-24.95Q446.68-24.95 448.47-23.85 450.26-22.75 451.08-20.69 451.91-18.63 451.91-15.63L451.91-15.63 451.91 0ZM435.58 0L431.53 0 431.53-24.4 435.58-24.4 435.41-18.55 435.58-18.32 435.58 0ZM470.92-7.3L470.92-7.3Q465.95-7.3 463.29-9.47 460.62-11.65 460.62-15.7L460.62-15.7 460.62-16.32Q460.62-18.85 461.66-20.73 462.7-22.6 464.97-23.66 467.25-24.73 470.92-24.83L470.92-24.83 483.37-25.23 483.37-22.03 476.02-22.28 476-22.1Q477.72-21.75 478.82-20.9 479.92-20.05 480.46-18.78 481-17.5 481-15.8L481-15.8 481-15.25Q481-11.38 478.45-9.34 475.9-7.3 470.92-7.3ZM470.75 6.15L470.75 6.15 471.32 6.15Q473.57 6.15 475.19 5.81 476.8 5.48 477.67 4.75 478.55 4.03 478.55 2.83L478.55 2.83 478.55 2.73Q478.55 1.33 477.54 0.59 476.52-0.15 474.07-0.38L474.07-0.38 467.17-1 468.32-1.05Q466.92-0.85 465.86-0.4 464.8 0.05 464.2 0.79 463.6 1.53 463.6 2.63L463.6 2.63 463.6 2.68Q463.6 3.95 464.47 4.73 465.35 5.5 466.95 5.83 468.55 6.15 470.75 6.15ZM471.25 9.38L470.52 9.38Q467.22 9.38 464.84 8.81 462.45 8.25 461.14 6.99 459.82 5.73 459.82 3.6L459.82 3.6 459.82 3.5Q459.82 2 460.54 1 461.25 0 462.46-0.58 463.67-1.15 465.17-1.35L465.17-1.35 465.15-1.5Q463.1-1.85 462.12-2.71 461.15-3.58 461.15-4.95L461.15-4.95 461.15-4.98Q461.15-5.93 461.59-6.6 462.02-7.28 462.91-7.68 463.8-8.08 465.17-8.18L465.17-8.18 465.17-8.68 469.82-7.5 467.92-7.55Q466.22-7.53 465.57-7.14 464.92-6.75 464.92-5.98L464.92-5.98 464.92-5.95Q464.92-5.13 465.85-4.7 466.77-4.28 469-4.03L469-4.03 474.92-3.43Q478.8-3.03 480.57-1.56 482.35-0.1 482.35 2.75L482.35 2.75 482.35 2.88Q482.35 5.15 481 6.6 479.65 8.05 477.17 8.71 474.7 9.38 471.25 9.38L471.25 9.38ZM470.87-10.3L470.87-10.3Q472.97-10.3 474.36-10.91 475.75-11.53 476.46-12.76 477.17-14 477.17-15.8L477.17-15.8 477.17-16.4Q477.17-18.15 476.49-19.38 475.8-20.6 474.42-21.24 473.05-21.88 470.97-21.88L470.97-21.88 470.82-21.88Q468.57-21.88 467.16-21.19 465.75-20.5 465.11-19.26 464.47-18.03 464.47-16.38L464.47-16.38 464.47-15.8Q464.47-14 465.19-12.78 465.9-11.55 467.32-10.93 468.75-10.3 470.87-10.3Z" opacity="1" transform="matrix(1,0,0,1,0,0)" fill="#000000" class="slogan-text-1" data-fill-palette-color="secondary" id="text-1"></path></svg></g></svg></g></svg></g></svg></g><g></g></svg></g><defs></defs></svg><rect width="395.52" height="97.22169093787323" fill="none" stroke="none" visibility="hidden"></rect></g></svg></g></svg>